<svg width="48" height="48" viewBox="0 0 48 48" fill="none" xmlns="http://www.w3.org/2000/svg">
<path d="M19 37C28.9411 37 37 28.9411 37 19C37 9.05887 28.9411 1 19 1C9.05887 1 1 9.05887 1 19C1 28.9411 9.05887 37 19 37Z" stroke="black" stroke-miterlimit="10" stroke-linecap="round" stroke-linejoin="round"/>
<path d="M31.8 31.7998L47 46.9998" stroke="black" stroke-miterlimit="10" stroke-linecap="round" stroke-linejoin="round"/>
<path d="M16 21.2002V24.6002L8 28.0002" stroke="black" stroke-miterlimit="10" stroke-linecap="round" stroke-linejoin="round"/>
<path d="M22 21.2002V24.6002L30 28.0002" stroke="black" stroke-miterlimit="10" stroke-linecap="round" stroke-linejoin="round"/>
<path d="M25.4 14.4004C25.4 18.6004 22.6 22.0004 19 22.0004C15.4 22.0004 12.6 18.6004 12.6 14.4004C12.6 10.2004 15.4 6.80038 19 6.80038C22.6 6.60038 25.4 10.0004 25.4 14.4004Z" stroke="black" stroke-miterlimit="10" stroke-linecap="round" stroke-linejoin="round"/>
<path d="M25.4 13.4C25.2 13.4 25 13.4 24.6 13.4C22.6 13.8 21.2 13 20 11C19.4 12.4 17.2 13.4 15.4 13.4C14.6 13.4 13.4 13.2 12.8 12.8" stroke="black" stroke-miterlimit="10" stroke-linecap="round" stroke-linejoin="round"/>
</svg>
