<svg width="40" height="40" viewBox="0 0 40 40" fill="none" xmlns="http://www.w3.org/2000/svg">
<path d="M0.833328 39.167H39.1667" stroke="black" stroke-miterlimit="10" stroke-linecap="round" stroke-linejoin="round"/>
<path d="M7.5 30.8335H2.5V39.1668H7.5V30.8335Z" stroke="black" stroke-miterlimit="10" stroke-linecap="round" stroke-linejoin="round"/>
<path d="M17.5 22.5H12.5V39.1667H17.5V22.5Z" stroke="black" stroke-miterlimit="10" stroke-linecap="round" stroke-linejoin="round"/>
<path d="M27.5 25.8335H22.5V39.1668H27.5V25.8335Z" stroke="black" stroke-miterlimit="10" stroke-linecap="round" stroke-linejoin="round"/>
<path d="M37.5 14.167H32.5V39.167H37.5V14.167Z" stroke="black" stroke-miterlimit="10" stroke-linecap="round" stroke-linejoin="round"/>
<path d="M4.99999 20.8333C5.92047 20.8333 6.66666 20.0871 6.66666 19.1667C6.66666 18.2462 5.92047 17.5 4.99999 17.5C4.07952 17.5 3.33333 18.2462 3.33333 19.1667C3.33333 20.0871 4.07952 20.8333 4.99999 20.8333Z" stroke="black" stroke-miterlimit="10" stroke-linecap="round" stroke-linejoin="round"/>
<path d="M15 12.5003C15.9205 12.5003 16.6667 11.7541 16.6667 10.8337C16.6667 9.91318 15.9205 9.16699 15 9.16699C14.0795 9.16699 13.3333 9.91318 13.3333 10.8337C13.3333 11.7541 14.0795 12.5003 15 12.5003Z" stroke="black" stroke-miterlimit="10" stroke-linecap="round" stroke-linejoin="round"/>
<path d="M25 15.8333C25.9205 15.8333 26.6667 15.0871 26.6667 14.1667C26.6667 13.2462 25.9205 12.5 25 12.5C24.0795 12.5 23.3333 13.2462 23.3333 14.1667C23.3333 15.0871 24.0795 15.8333 25 15.8333Z" stroke="black" stroke-miterlimit="10" stroke-linecap="round" stroke-linejoin="round"/>
<path d="M35 4.16683C35.9205 4.16683 36.6667 3.42064 36.6667 2.50016C36.6667 1.57969 35.9205 0.833496 35 0.833496C34.0795 0.833496 33.3333 1.57969 33.3333 2.50016C33.3333 3.42064 34.0795 4.16683 35 4.16683Z" stroke="black" stroke-miterlimit="10" stroke-linecap="round" stroke-linejoin="round"/>
<path d="M6.33333 18.1668L13.6667 11.8335" stroke="black" stroke-miterlimit="10" stroke-linecap="round" stroke-linejoin="round"/>
<path d="M16.5 11.3335L23.5 13.6668" stroke="black" stroke-miterlimit="10" stroke-linejoin="round"/>
<path d="M33.8333 3.8335L26.1667 12.8335" stroke="black" stroke-miterlimit="10" stroke-linecap="round" stroke-linejoin="round"/>
</svg>
